<mxfile host="app.diagrams.net" agent="Mozilla/5.0 (Macintosh; Intel Mac OS X 10_15_7) AppleWebKit/537.36 (KHTML, like Gecko) Chrome/133.0.0.0 Safari/537.36" version="26.0.14">
  <diagram name="第 1 页" id="3Fu6Cyum_ohwxmZfArsV">
    <mxGraphModel dx="273" dy="1349" grid="1" gridSize="10" guides="1" tooltips="1" connect="1" arrows="1" fold="1" page="1" pageScale="1" pageWidth="827" pageHeight="1169" math="0" shadow="0">
      <root>
        <mxCell id="0" />
        <mxCell id="1" parent="0" />
        <mxCell id="ql2Fjk31QtfPR9bqJzKU-9" value="Nginx" style="ellipse;shape=cloud;whiteSpace=wrap;html=1;" vertex="1" parent="1">
          <mxGeometry x="320" y="125" width="110" height="70" as="geometry" />
        </mxCell>
        <mxCell id="ql2Fjk31QtfPR9bqJzKU-10" value="" style="rounded=1;whiteSpace=wrap;html=1;" vertex="1" parent="1">
          <mxGeometry x="200" y="-370" width="120" height="60" as="geometry" />
        </mxCell>
        <mxCell id="ql2Fjk31QtfPR9bqJzKU-20" style="rounded=0;orthogonalLoop=1;jettySize=auto;html=1;" edge="1" parent="1" source="ql2Fjk31QtfPR9bqJzKU-11">
          <mxGeometry relative="1" as="geometry">
            <mxPoint x="585" y="320" as="targetPoint" />
          </mxGeometry>
        </mxCell>
        <mxCell id="ql2Fjk31QtfPR9bqJzKU-22" style="edgeStyle=orthogonalEdgeStyle;rounded=0;orthogonalLoop=1;jettySize=auto;html=1;entryX=0;entryY=0.5;entryDx=0;entryDy=0;" edge="1" parent="1" source="ql2Fjk31QtfPR9bqJzKU-11" target="ql2Fjk31QtfPR9bqJzKU-21">
          <mxGeometry relative="1" as="geometry" />
        </mxCell>
        <mxCell id="ql2Fjk31QtfPR9bqJzKU-11" value="" style="rounded=1;whiteSpace=wrap;html=1;" vertex="1" parent="1">
          <mxGeometry x="490" y="60" width="190" height="200" as="geometry" />
        </mxCell>
        <mxCell id="ql2Fjk31QtfPR9bqJzKU-12" value="" style="group" vertex="1" connectable="0" parent="1">
          <mxGeometry x="140" y="90" width="92.37" height="140" as="geometry" />
        </mxCell>
        <mxCell id="ql2Fjk31QtfPR9bqJzKU-4" value="" style="fontColor=#0066CC;verticalAlign=top;verticalLabelPosition=bottom;labelPosition=center;align=center;html=1;outlineConnect=0;fillColor=#CCCCCC;strokeColor=#6881B3;gradientColor=none;gradientDirection=north;strokeWidth=2;shape=mxgraph.networks.pc;" vertex="1" parent="ql2Fjk31QtfPR9bqJzKU-12">
          <mxGeometry width="92.37" height="61.330496276362716" as="geometry" />
        </mxCell>
        <mxCell id="ql2Fjk31QtfPR9bqJzKU-5" value="" style="sketch=0;verticalLabelPosition=bottom;sketch=0;aspect=fixed;html=1;verticalAlign=top;strokeColor=#314354;fillColor=#647687;align=center;outlineConnect=0;pointerEvents=1;shape=mxgraph.citrix2.mobile;fontColor=#ffffff;" vertex="1" parent="ql2Fjk31QtfPR9bqJzKU-12">
          <mxGeometry x="29.900169000000005" y="78.85349521246636" width="30.893047124350705" height="61.14650478753364" as="geometry" />
        </mxCell>
        <mxCell id="ql2Fjk31QtfPR9bqJzKU-13" value="" style="rounded=1;whiteSpace=wrap;html=1;" vertex="1" parent="1">
          <mxGeometry x="490" y="-200" width="180" height="180" as="geometry" />
        </mxCell>
        <mxCell id="ql2Fjk31QtfPR9bqJzKU-17" value="" style="rounded=1;whiteSpace=wrap;html=1;" vertex="1" parent="1">
          <mxGeometry x="1950" y="430" width="120" height="60" as="geometry" />
        </mxCell>
        <mxCell id="ql2Fjk31QtfPR9bqJzKU-18" value="" style="group" vertex="1" connectable="0" parent="1">
          <mxGeometry x="538.5" y="320" width="93" height="49.5" as="geometry" />
        </mxCell>
        <mxCell id="ql2Fjk31QtfPR9bqJzKU-15" value="" style="points=[];aspect=fixed;html=1;align=center;shadow=0;dashed=0;fillColor=#FF6A00;strokeColor=none;shape=mxgraph.alibaba_cloud.cloud_security_center;" vertex="1" parent="ql2Fjk31QtfPR9bqJzKU-18">
          <mxGeometry width="37.72394366197182" height="42.70140845070422" as="geometry" />
        </mxCell>
        <mxCell id="ql2Fjk31QtfPR9bqJzKU-16" value="" style="points=[];aspect=fixed;html=1;align=center;shadow=0;dashed=0;fillColor=#FF6A00;strokeColor=none;shape=mxgraph.alibaba_cloud.hsm_hardware_security_module;" vertex="1" parent="ql2Fjk31QtfPR9bqJzKU-18">
          <mxGeometry x="52.394366197183096" width="40.6056338028169" height="43.225352112676056" as="geometry" />
        </mxCell>
        <mxCell id="ql2Fjk31QtfPR9bqJzKU-21" value="" style="rounded=1;whiteSpace=wrap;html=1;" vertex="1" parent="1">
          <mxGeometry x="827" y="15" width="330" height="290" as="geometry" />
        </mxCell>
        <mxCell id="ql2Fjk31QtfPR9bqJzKU-33" value="Gateway" style="swimlane;fontStyle=0;childLayout=stackLayout;horizontal=1;startSize=26;fillColor=none;horizontalStack=0;resizeParent=1;resizeParentMax=0;resizeLast=0;collapsible=1;marginBottom=0;whiteSpace=wrap;html=1;fontSize=10;" vertex="1" parent="1">
          <mxGeometry x="500" y="160" width="80" height="78" as="geometry" />
        </mxCell>
        <mxCell id="ql2Fjk31QtfPR9bqJzKU-34" value="router" style="text;strokeColor=none;fillColor=none;align=left;verticalAlign=top;spacingLeft=4;spacingRight=4;overflow=hidden;rotatable=0;points=[[0,0.5],[1,0.5]];portConstraint=eastwest;whiteSpace=wrap;html=1;" vertex="1" parent="ql2Fjk31QtfPR9bqJzKU-33">
          <mxGeometry y="26" width="80" height="26" as="geometry" />
        </mxCell>
        <mxCell id="ql2Fjk31QtfPR9bqJzKU-35" value="loadbalance" style="text;strokeColor=none;fillColor=none;align=left;verticalAlign=top;spacingLeft=4;spacingRight=4;overflow=hidden;rotatable=0;points=[[0,0.5],[1,0.5]];portConstraint=eastwest;whiteSpace=wrap;html=1;" vertex="1" parent="ql2Fjk31QtfPR9bqJzKU-33">
          <mxGeometry y="52" width="80" height="26" as="geometry" />
        </mxCell>
        <mxCell id="ql2Fjk31QtfPR9bqJzKU-40" value="Gateway" style="swimlane;fontStyle=0;childLayout=stackLayout;horizontal=1;startSize=26;fillColor=none;horizontalStack=0;resizeParent=1;resizeParentMax=0;resizeLast=0;collapsible=1;marginBottom=0;whiteSpace=wrap;html=1;fontSize=10;" vertex="1" parent="1">
          <mxGeometry x="545" y="82" width="80" height="78" as="geometry" />
        </mxCell>
        <mxCell id="ql2Fjk31QtfPR9bqJzKU-41" value="router" style="text;strokeColor=none;fillColor=none;align=left;verticalAlign=top;spacingLeft=4;spacingRight=4;overflow=hidden;rotatable=0;points=[[0,0.5],[1,0.5]];portConstraint=eastwest;whiteSpace=wrap;html=1;" vertex="1" parent="ql2Fjk31QtfPR9bqJzKU-40">
          <mxGeometry y="26" width="80" height="26" as="geometry" />
        </mxCell>
        <mxCell id="ql2Fjk31QtfPR9bqJzKU-42" value="loadbalance" style="text;strokeColor=none;fillColor=none;align=left;verticalAlign=top;spacingLeft=4;spacingRight=4;overflow=hidden;rotatable=0;points=[[0,0.5],[1,0.5]];portConstraint=eastwest;whiteSpace=wrap;html=1;" vertex="1" parent="ql2Fjk31QtfPR9bqJzKU-40">
          <mxGeometry y="52" width="80" height="26" as="geometry" />
        </mxCell>
        <mxCell id="ql2Fjk31QtfPR9bqJzKU-43" value="Gateway" style="swimlane;fontStyle=0;childLayout=stackLayout;horizontal=1;startSize=26;fillColor=none;horizontalStack=0;resizeParent=1;resizeParentMax=0;resizeLast=0;collapsible=1;marginBottom=0;whiteSpace=wrap;html=1;fontSize=10;" vertex="1" parent="1">
          <mxGeometry x="590" y="160" width="80" height="78" as="geometry" />
        </mxCell>
        <mxCell id="ql2Fjk31QtfPR9bqJzKU-44" value="router" style="text;strokeColor=none;fillColor=none;align=left;verticalAlign=top;spacingLeft=4;spacingRight=4;overflow=hidden;rotatable=0;points=[[0,0.5],[1,0.5]];portConstraint=eastwest;whiteSpace=wrap;html=1;" vertex="1" parent="ql2Fjk31QtfPR9bqJzKU-43">
          <mxGeometry y="26" width="80" height="26" as="geometry" />
        </mxCell>
        <mxCell id="ql2Fjk31QtfPR9bqJzKU-45" value="loadbalance" style="text;strokeColor=none;fillColor=none;align=left;verticalAlign=top;spacingLeft=4;spacingRight=4;overflow=hidden;rotatable=0;points=[[0,0.5],[1,0.5]];portConstraint=eastwest;whiteSpace=wrap;html=1;" vertex="1" parent="ql2Fjk31QtfPR9bqJzKU-43">
          <mxGeometry y="52" width="80" height="26" as="geometry" />
        </mxCell>
      </root>
    </mxGraphModel>
  </diagram>
</mxfile>
